<svg xmlns="http://www.w3.org/2000/svg" viewBox="0 0 1100 420" width="100%" height="420" role="img" aria-label="Topology">
  <defs>
    <linearGradient id="tbg" x1="0" y1="0" x2="1" y2="1">
      <stop offset="0%" stop-color="#050810"/><stop offset="100%" stop-color="#0a1424"/>
    </linearGradient>
    <linearGradient id="neon" x1="0" y1="0" x2="1" y2="0">
      <stop offset="0%" stop-color="#00f0ff"/><stop offset="50%" stop-color="#8a5cff"/><stop offset="100%" stop-color="#ff2fd0"/>
    </linearGradient>
    <filter id="g"><feGaussianBlur stdDeviation="3" result="b"/><feMerge><feMergeNode in="b"/><feMergeNode in="SourceGraphic"/></feMerge></filter>
    <style>
      .t{font-family:Georgia,'Times New Roman',serif}
      .m{font-family:ui-monospace,monospace}
      @keyframes pulse{0%,100%{opacity:0.55}50%{opacity:1}}
      .p{animation:pulse 2.8s ease-in-out infinite}
      @keyframes flow{0%{stroke-dashoffset:40}100%{stroke-dashoffset:0}}
      .flow{stroke-dasharray:8 6;animation:flow 1.2s linear infinite}
    </style>
  </defs>
  <rect width="1100" height="420" rx="14" fill="url(#tbg)"/>
  <text x="550" y="38" text-anchor="middle" class="t" font-size="18" fill="#cfe4ff" letter-spacing="3">𝑇ℎ𝑒 𝑓𝑎𝑏𝑟𝑖𝑐 · 𝑚𝑢𝑙𝑡𝑖𝑝𝑙𝑒𝑥𝑒𝑑 𝑡𝑜𝑝𝑜𝑙𝑜𝑔𝑦</text>
  <g filter="url(#g)">
    <rect x="40" y="100" width="150" height="52" rx="10" fill="#0c1a2e" stroke="#00f0ff" stroke-width="1.3"/>
    <text x="115" y="132" text-anchor="middle" class="m" font-size="14" fill="#00f0ff">𝑐𝑙𝑖𝑒𝑛𝑡-𝑎</text>
    <rect x="40" y="180" width="150" height="52" rx="10" fill="#0c1a2e" stroke="#00f0ff" stroke-width="1.3"/>
    <text x="115" y="212" text-anchor="middle" class="m" font-size="14" fill="#00f0ff">𝑐𝑙𝑖𝑒𝑛𝑡-𝑏</text>
    <rect x="40" y="260" width="150" height="52" rx="10" fill="#0c1a2e" stroke="#00f0ff" stroke-width="1.3"/>
    <text x="115" y="292" text-anchor="middle" class="m" font-size="14" fill="#00f0ff">𝑐𝑙𝑖𝑒𝑛𝑡-𝑐</text>
  </g>
  <rect x="380" y="155" width="220" height="110" rx="14" fill="#0a1628" stroke="url(#neon)" stroke-width="2" class="p" filter="url(#g)"/>
  <text x="490" y="200" text-anchor="middle" class="t" font-size="16" fill="#00f0ff">𝑆𝐼𝑁𝐺𝐿𝐸 𝑆𝑂𝐶𝐾𝐸𝑇</text>
  <text x="490" y="225" text-anchor="middle" class="m" font-size="12" fill="#8a5cff">𝑚𝑢𝑥 · 𝑥𝑐ℎ𝑎𝑐ℎ𝑎20</text>
  <text x="490" y="245" text-anchor="middle" class="m" font-size="12" fill="#ff2fd0">𝑇𝐿𝑆 1.3 𝑐𝑜𝑣𝑒𝑟</text>
  <g filter="url(#g)">
    <rect x="860" y="80" width="180" height="48" rx="10" fill="#0c1a2e" stroke="#3fe0a0" stroke-width="1.3"/>
    <text x="950" y="110" text-anchor="middle" class="m" font-size="13" fill="#3fe0a0">𝑒𝑑𝑔𝑒-𝑒𝑢 · 12𝑚𝑠</text>
    <rect x="860" y="150" width="180" height="48" rx="10" fill="#0c1a2e" stroke="#3fe0a0" stroke-width="1.3"/>
    <text x="950" y="180" text-anchor="middle" class="m" font-size="13" fill="#3fe0a0">𝑒𝑑𝑔𝑒-𝑢𝑠 · 48𝑚𝑠</text>
    <rect x="860" y="220" width="180" height="48" rx="10" fill="#0c1a2e" stroke="#3fe0a0" stroke-width="1.3"/>
    <text x="950" y="250" text-anchor="middle" class="m" font-size="13" fill="#3fe0a0">𝑒𝑑𝑔𝑒-𝑎𝑝 · 89𝑚𝑠</text>
    <rect x="860" y="290" width="180" height="48" rx="10" fill="#0c1a2e" stroke="#3d5a80" stroke-width="1"/>
    <text x="950" y="320" text-anchor="middle" class="m" font-size="13" fill="#5a7096">𝑒𝑑𝑔𝑒-𝑠𝑎 · 𝑠𝑡𝑎𝑛𝑑𝑏𝑦</text>
  </g>
  <g stroke="#00f0ff" stroke-width="1.5" fill="none" opacity="0.75" class="flow">
    <path d="M190 126 C280 126 320 190 380 190"/>
    <path d="M190 206 C280 206 320 210 380 210"/>
    <path d="M190 286 C280 286 320 230 380 230"/>
  </g>
  <g stroke="#3fe0a0" stroke-width="1.5" fill="none" opacity="0.75" class="flow">
    <path d="M600 190 C700 190 780 104 860 104"/>
    <path d="M600 210 C700 210 780 174 860 174"/>
    <path d="M600 230 C700 230 780 244 860 244"/>
  </g>
  <text x="550" y="390" text-anchor="middle" class="m" font-size="12" fill="#3d5a80">𝑚𝑎𝑛𝑦 𝑙𝑜𝑔𝑖𝑐𝑎𝑙 𝑠𝑡𝑟𝑒𝑎𝑚𝑠 · 𝑜𝑛𝑒 𝑜𝑏𝑓𝑢𝑠𝑐𝑎𝑡𝑒𝑑 𝑠𝑜𝑐𝑘𝑒𝑡 · 𝑎𝑢𝑡𝑜 𝑓𝑎𝑖𝑙𝑜𝑣𝑒𝑟</text>
</svg>
